<svg width="30" height="29" viewBox="0 0 30 29" fill="none" xmlns="http://www.w3.org/2000/svg">
<path d="M15 0C6.71538 0 0 5.68269 0 12.6923C0 16.5785 2.06922 20.0521 5.32076 22.3806C5.40379 24.1528 5.12917 26.6001 2.68404 27.7284C2.68254 27.7291 2.68104 27.7299 2.67954 27.7306C2.57029 27.7722 2.47625 27.8459 2.40984 27.9421C2.34344 28.0383 2.30782 28.1524 2.30769 28.2692C2.30769 28.4222 2.36848 28.569 2.47667 28.6772C2.58486 28.7854 2.73161 28.8462 2.88462 28.8462C2.89839 28.8462 2.91143 28.844 2.92518 28.8439C2.92819 28.8439 2.93119 28.8439 2.93419 28.8439C5.74269 28.8259 8.12685 27.3081 9.77163 25.7046C10.2932 25.1958 11.0202 24.9454 11.7368 25.0804C12.7868 25.28 13.8785 25.3846 15 25.3846C23.2846 25.3846 30 19.7019 30 12.6923C30 5.68269 23.2846 0 15 0Z" fill="#28B761"/>
</svg>
