<svg width="30" height="30" viewBox="0 0 30 30" fill="none" xmlns="http://www.w3.org/2000/svg">
<path d="M4.09119 0.000383607C3.74228 0.000383607 3.39298 0.133292 3.12708 0.399876L0.399876 3.12708C-0.133292 3.66025 -0.133292 4.52349 0.399876 5.0553L10.3446 15L0.399876 24.9447C-0.133292 25.4779 -0.133292 26.3411 0.399876 26.8729L3.12708 29.6001C3.66025 30.1333 4.52349 30.1333 5.0553 29.6001L15 19.6554L24.9447 29.6001C25.4765 30.1333 26.3411 30.1333 26.8729 29.6001L29.6001 26.8729C30.1333 26.3398 30.1333 25.4765 29.6001 24.9447L19.6554 15L29.6001 5.0553C30.1333 4.52349 30.1333 3.65888 29.6001 3.12708L26.8729 0.399876C26.3398 -0.133292 25.4765 -0.133292 24.9447 0.399876L15 10.3446L5.0553 0.399876C4.78871 0.133292 4.4401 0.000383607 4.09119 0.000383607Z" fill="white"/>
</svg>
