<svg width="30" height="30" viewBox="0 0 30 30" fill="none" xmlns="http://www.w3.org/2000/svg">
<path d="M15 0C6.71625 0 0 6.71625 0 15C0 22.0288 4.84 27.91 11.365 29.5375C11.295 29.335 11.25 29.1 11.25 28.8088V26.245C10.6413 26.245 9.62125 26.245 9.365 26.245C8.33875 26.245 7.42625 25.8038 6.98375 24.9838C6.4925 24.0725 6.4075 22.6788 5.19 21.8263C4.82875 21.5425 5.10375 21.2188 5.52 21.2625C6.28875 21.48 6.92625 22.0075 7.52625 22.79C8.12375 23.5738 8.405 23.7513 9.52125 23.7513C10.0625 23.7513 10.8725 23.72 11.635 23.6C12.045 22.5588 12.7537 21.6 13.62 21.1475C8.625 20.6338 6.24125 18.1488 6.24125 14.775C6.24125 13.3225 6.86 11.9175 7.91125 10.7338C7.56625 9.55875 7.1325 7.1625 8.04375 6.25C10.2913 6.25 11.65 7.7075 11.9763 8.10125C13.0963 7.7175 14.3262 7.5 15.6187 7.5C16.9137 7.5 18.1487 7.7175 19.2712 8.10375C19.5937 7.7125 20.9538 6.25 23.2063 6.25C24.1213 7.16375 23.6825 9.57 23.3337 10.7425C24.3787 11.9238 24.9938 13.325 24.9938 14.775C24.9938 18.1463 22.6137 20.63 17.6262 21.1463C18.9987 21.8625 20 23.875 20 25.3913V28.8088C20 28.9388 19.9713 29.0325 19.9563 29.1438C25.8013 27.095 30 21.545 30 15C30 6.71625 23.2837 0 15 0Z" fill="#4AFEFF"/>
</svg>
