<svg width="31" height="18" viewBox="0 0 31 18" fill="none" xmlns="http://www.w3.org/2000/svg">
<path d="M2.14051 -0.000131634C1.98778 -0.00223991 1.83614 0.0253012 1.69441 0.080891C1.55268 0.136481 1.42368 0.21901 1.31491 0.323684C1.20614 0.428358 1.11977 0.553088 1.06082 0.690626C1.00187 0.828163 0.971512 0.975765 0.971512 1.12485C0.971512 1.27394 1.00187 1.42155 1.06082 1.55908C1.11977 1.69662 1.20614 1.82135 1.31491 1.92602C1.42368 2.0307 1.55268 2.11323 1.69441 2.16882C1.83614 2.22441 1.98778 2.25195 2.14051 2.24984H29.8025C29.9552 2.25195 30.1069 2.22441 30.2486 2.16882C30.3903 2.11323 30.5193 2.0307 30.6281 1.92602C30.7369 1.82135 30.8233 1.69662 30.8822 1.55908C30.9412 1.42155 30.9715 1.27394 30.9715 1.12485C30.9715 0.975765 30.9412 0.828163 30.8822 0.690626C30.8233 0.553088 30.7369 0.428358 30.6281 0.323684C30.5193 0.21901 30.3903 0.136481 30.2486 0.080891C30.1069 0.0253012 29.9552 -0.00223991 29.8025 -0.000131634H2.14051ZM2.14051 7.87477C1.98778 7.87266 1.83614 7.9002 1.69441 7.95579C1.55268 8.01138 1.42368 8.09391 1.31491 8.19859C1.20614 8.30326 1.11977 8.42799 1.06082 8.56553C1.00187 8.70306 0.971512 8.85067 0.971512 8.99976C0.971512 9.14884 1.00187 9.29645 1.06082 9.43399C1.11977 9.57152 1.20614 9.69625 1.31491 9.80093C1.42368 9.9056 1.55268 9.98813 1.69441 10.0437C1.83614 10.0993 1.98778 10.1269 2.14051 10.1247H29.8025C29.9552 10.1269 30.1069 10.0993 30.2486 10.0437C30.3903 9.98813 30.5193 9.9056 30.6281 9.80093C30.7369 9.69625 30.8233 9.57152 30.8822 9.43399C30.9412 9.29645 30.9715 9.14884 30.9715 8.99976C30.9715 8.85067 30.9412 8.70306 30.8822 8.56553C30.8233 8.42799 30.7369 8.30326 30.6281 8.19859C30.5193 8.09391 30.3903 8.01138 30.2486 7.95579C30.1069 7.9002 29.9552 7.87266 29.8025 7.87477H2.14051ZM2.14051 15.7497C1.98778 15.7476 1.83614 15.7751 1.69441 15.8307C1.55268 15.8863 1.42368 15.9688 1.31491 16.0735C1.20614 16.1782 1.11977 16.3029 1.06082 16.4404C1.00187 16.578 0.971512 16.7256 0.971512 16.8747C0.971512 17.0237 1.00187 17.1713 1.06082 17.3089C1.11977 17.4464 1.20614 17.5712 1.31491 17.6758C1.42368 17.7805 1.55268 17.863 1.69441 17.9186C1.83614 17.9742 1.98778 18.0018 2.14051 17.9996H29.8025C29.9552 18.0018 30.1069 17.9742 30.2486 17.9186C30.3903 17.863 30.5193 17.7805 30.6281 17.6758C30.7369 17.5712 30.8233 17.4464 30.8822 17.3089C30.9412 17.1713 30.9715 17.0237 30.9715 16.8747C30.9715 16.7256 30.9412 16.578 30.8822 16.4404C30.8233 16.3029 30.7369 16.1782 30.6281 16.0735C30.5193 15.9688 30.3903 15.8863 30.2486 15.8307C30.1069 15.7751 29.9552 15.7476 29.8025 15.7497H2.14051Z" fill="white"/>
</svg>
