<svg width="43" height="40" viewBox="0 0 43 40" fill="none" xmlns="http://www.w3.org/2000/svg">
<path d="M23 15L19 19V15H15C14.4696 15 13.9609 14.7893 13.5858 14.4142C13.2107 14.0391 13 13.5304 13 13V3C13 1.9 13.9 1 15 1H31C31.5304 1 32.0391 1.21071 32.4142 1.58579C32.7893 1.96086 33 2.46957 33 3V13C33 13.5304 32.7893 14.0391 32.4142 14.4142C32.0391 14.7893 31.5304 15 31 15H23ZM18 7V9H20V7H18ZM22 7V9H24V7H22ZM26 7V9H28V7H26Z" fill="black"/>
<path d="M33 35L29 39V35H25C24.4696 35 23.9609 34.7893 23.5858 34.4142C23.2107 34.0391 23 33.5304 23 33V23C23 21.9 23.9 21 25 21H41C41.5304 21 42.0391 21.2107 42.4142 21.5858C42.7893 21.9609 43 22.4696 43 23V33C43 33.5304 42.7893 34.0391 42.4142 34.4142C42.0391 34.7893 41.5304 35 41 35H33ZM28 27V29H30V27H28ZM32 27V29H34V27H32ZM36 27V29H38V27H36Z" fill="black"/>
<path d="M10 35L6 39V35H2C1.46957 35 0.960859 34.7893 0.585786 34.4142C0.210714 34.0391 0 33.5304 0 33V23C0 21.9 0.9 21 2 21H18C18.5304 21 19.0391 21.2107 19.4142 21.5858C19.7893 21.9609 20 22.4696 20 23V33C20 33.5304 19.7893 34.0391 19.4142 34.4142C19.0391 34.7893 18.5304 35 18 35H10ZM5 27V29H7V27H5ZM9 27V29H11V27H9ZM13 27V29H15V27H13Z" fill="black"/>
</svg>
