<svg width="24" height="22" viewBox="0 0 24 22" fill="#FFE3A1" xmlns="http://www.w3.org/2000/svg">
<g clip-path="url(#clip0_1024_166)">
<path d="M12.8373 8.25005L10.6047 10.45V8.25005H8.37214C8.07608 8.25005 7.79215 8.13416 7.58281 7.92787C7.37347 7.72158 7.25586 7.44179 7.25586 7.15005V1.65005C7.25586 1.04505 7.75819 0.550049 8.37214 0.550049H17.3024C17.5984 0.550049 17.8824 0.665941 18.0917 0.872231C18.301 1.07852 18.4187 1.35831 18.4187 1.65005V7.15005C18.4187 7.44179 18.301 7.72158 18.0917 7.92787C17.8824 8.13416 17.5984 8.25005 17.3024 8.25005H12.8373ZM10.0466 3.85005V4.95005H11.1628V3.85005H10.0466ZM12.2791 3.85005V4.95005H13.3954V3.85005H12.2791ZM14.5117 3.85005V4.95005H15.628V3.85005H14.5117Z" fill="#FFE3A1"/>
</g>
<g clip-path="url(#clip1_1024_166)">
<path d="M18.4188 19.25L16.1862 21.45V19.25H13.9537C13.6576 19.25 13.3737 19.1342 13.1644 18.9279C12.955 18.7216 12.8374 18.4418 12.8374 18.15V12.65C12.8374 12.045 13.3397 11.55 13.9537 11.55H22.8839C23.18 11.55 23.4639 11.6659 23.6732 11.8722C23.8826 12.0785 24.0002 12.3583 24.0002 12.65V18.15C24.0002 18.4418 23.8826 18.7216 23.6732 18.9279C23.4639 19.1342 23.18 19.25 22.8839 19.25H18.4188ZM15.6281 14.85V15.95H16.7444V14.85H15.6281ZM17.8607 14.85V15.95H18.9769V14.85H17.8607ZM20.0932 14.85V15.95H21.2095V14.85H20.0932Z" fill="#FFE3A1"/>
</g>
<g clip-path="url(#clip2_1024_166)">
<path d="M5.5814 19.25L3.34884 21.45V19.25H1.11628C0.820223 19.25 0.536294 19.1342 0.326951 18.9279C0.117608 18.7216 0 18.4418 0 18.15V12.65C0 12.045 0.502326 11.55 1.11628 11.55H10.0465C10.3426 11.55 10.6265 11.6659 10.8358 11.8722C11.0452 12.0785 11.1628 12.3583 11.1628 12.65V18.15C11.1628 18.4418 11.0452 18.7216 10.8358 18.9279C10.6265 19.1342 10.3426 19.25 10.0465 19.25H5.5814ZM2.7907 14.85V15.95H3.90698V14.85H2.7907ZM5.02326 14.85V15.95H6.13954V14.85H5.02326ZM7.25581 14.85V15.95H8.37209V14.85H7.25581Z" fill="#FFE3A1"/>
</g>
<defs>
<clipPath id="clip0_1024_166">
<rect width="11.1628" height="11" fill="white" transform="translate(7.25586)"/>
</clipPath>
<clipPath id="clip1_1024_166">
<rect width="11.1628" height="11" fill="white" transform="translate(12.8374 11)"/>
</clipPath>
<clipPath id="clip2_1024_166">
<rect width="11.1628" height="11" fill="white" transform="translate(0 11)"/>
</clipPath>
</defs>
</svg>
