<svg width="27" height="40" viewBox="0 0 27 40" fill="none" xmlns="http://www.w3.org/2000/svg">
<path d="M2.94877 3.87097L2.09319 4.32337L1.58948 4.78782L1.01515 4.84755L1.10898 5.14513L0.710448 5.88359L0.452665 6.39572L0.611717 6.9322L0.645745 7.07026L0.271961 7.3812L0.288974 8.67605L0.169878 9.28039L0 9.45302L0.407812 10.2818L0.390798 11.387L0.696785 11.7496L0.492879 12.1813L0.815623 13.3208L0.917705 14.0632L1.27447 14.4258L2.6848 16.4287L3.02456 16.7742L2.61365 15.4089L2.2043 14.3197L2.09577 14.2707L1.80112 13.6315L2.02359 12.5695L1.61423 11.8185L1.38919 11.4759L1.95141 10.428L1.7274 9.59552L1.36573 8.93958V7.481L1.57634 7.17189L1.69853 6.59742L2.03571 6.16912L2.28859 5.47153L2.16821 5.25096L2.34865 4.8575L2.94903 4.02526L3.21429 3.92232L2.94877 3.87097Z" fill="white"/>
<path d="M3.85707 18.0645L2.64534 11.3806L2.43494 8.14142L2.55877 5.89208L2.71958 4.94097L3.07819 4.14392L3.33345 3.87097L2.95437 3.99613L2.49686 4.63884L2.18782 4.93442L1.98425 4.96824L2.02701 5.50024L1.60648 6.24547L1.66656 7.25357L1.45223 7.57533L1.39635 8.53353L1.40868 9.43337L1.28564 9.67933L1.43334 10.1145L1.4761 11.7337L1.70512 12.0904L1.61881 12.531L1.77962 13.6108L1.85387 14.3563L1.79169 14.6247L2.21248 15.1659L3.20175 17.5183L3.85707 18.0645Z" fill="white"/>
<path d="M3.57686 18.0645L2.17208 11.3806L1.92847 8.14169L2.07171 5.89208L2.25814 4.94097L2.67389 4.1442L2.96981 3.87097L3.57017 4.54395L3.64833 5.94416L3.91079 6.28774L3.64103 6.73957L3.73348 7.917L3.57716 8.36256L3.34298 8.60415L3.78306 9.05626L3.71919 10.4499L4.05282 10.9972L3.80435 11.5889L4.25872 12.8364L3.97466 13.1418L4.33658 13.7654L4.18056 15.1976L4.4999 15.5665L4.27271 15.8403L4.06712 16.9411L3.93908 17.6476L3.57686 18.0645Z" fill="white"/>
<path d="M9.2691 18.0867L9.04681 18.1911L7.69739 17.8958L6.50646 17.1485L6.04594 16.4013L6.14113 15.984L5.95074 15.15L6.06189 14.801L5.87125 14.6101L5.71153 13.7938L5.44164 13.3766L5.50519 13.1682L5.80672 12.6661L5.69558 11.3974L6.01331 10.9458L5.72747 10.6676L5.79077 9.06811L5.40975 8.4774L5.52089 7.67778L5.26695 6.3562L5.44164 6.02594L5.07631 5.85221L4.37756 4.89633L3.80614 4.13189L3.21436 3.77075L3.69966 4.4345L3.76247 5.81301L3.97445 6.15133L3.75682 6.59624L3.83043 7.75565L3.70457 8.19439L3.51565 8.43256L3.8714 8.87747L3.8189 10.2495L4.07823 10.8671L3.8876 11.3703L4.2539 12.5984L4.02499 12.8992L4.31696 13.5132L4.19036 14.9248L4.44797 15.2881L4.2647 15.5566L4.0986 16.6408L3.99555 17.3362L3.70334 17.7468L4.29758 18.5375L5.36141 18.8866L5.50445 19.3903L5.96473 19.2166L7.29869 19.651L8.96584 20.3115L9.75636 20.2742L9.70729 21.603L9.80126 23.3881L9.56155 24.0701L9.72128 24.682L9.94503 25.4513L10.1369 26.1856L9.96098 26.6053L10.1369 28.0391L10.0569 28.5987L10.4723 29.2807L10.648 30.4696L10.4563 30.9068L10.5523 32.6029L10.3285 32.952L10.6801 33.6163L10.6161 34.7529L10.9677 35.295L10.7279 35.5398L10.5682 37.1136L10.3604 37.5163L10.5842 38.3218V39.5972L10.8393 40L14.7858 38.3388L14.658 27.8133L14.2968 16.5135L14.0829 7.16172L14.3233 0.813697C14.3233 0.813697 14.1793 0.306757 13.7001 0.115581C13.2209 -0.0755952 12.4378 0.0280487 12.4378 0.0280487L11.8627 0.325285L11.1757 1.37434L10.7122 1.5494L10.7441 1.84664L10.1371 2.89569L9.8334 3.59408L9.89744 3.85641L9.72152 4.04866L9.46538 5.53484L9.12998 6.0944L9.24186 6.53153L9.19279 8.14042L9.4006 8.52492L9.129 8.83961L9.04902 10.2211L8.73006 10.938L8.92168 11.287L9.03356 12.581L9.12949 13.0879L9.30516 13.2453L9.01761 13.6649L9.00166 14.4167L8.92168 15.4486L8.65008 15.6409L8.96903 15.9899L8.905 17.2664L9.2691 18.0867Z" fill="white"/>
<path d="M23.7858 5.80646L24.0397 5.99509L24.3941 7.61755L24.6108 8.16851L24.4605 8.77424L24.5664 9.75031L24.5219 10.3181L24.2864 10.6357L24.6189 11.2774L24.5261 12.5806L24.8335 13.0962L24.5269 13.7177L24.596 14.4954L24.5219 15.185L24.2248 15.5498L24.4476 15.854L24.4105 16.5112L24.1604 17.4505L24.3139 17.9022L24.3585 18.0645L24.5982 17.1335L24.8394 15.4499L24.9911 13.6563L25.0715 11.6922L24.9733 9.42283L24.8394 8.22715L24.595 6.94572L24.1555 5.82029L23.7858 5.80646Z" fill="white"/>
<path d="M23.7858 5.83767L24.4729 6.61991L24.8488 7.8614L25.151 9.60674L25.1981 11.4198L25.1483 13.5497L24.8362 16.0171L24.5241 17.4068L24.3368 18.0431L24.493 18.0645L24.6972 17.8895L25.0192 17.1413L25.75 15.1008L26.2831 13.0244L26.8645 11.5929L27.0001 11.3811L26.7482 11.0486L26.9419 9.82885L26.8934 9.37517L26.632 9.25422L26.7287 8.59878L26.5446 7.98402L26.0988 7.17754L26.1666 6.8147L25.6919 6.78433L24.4467 5.91821L24.0542 5.80646L24.1691 5.87334L23.7858 5.83767Z" fill="white"/>
<path d="M14.7856 38.9605L17.4526 39.028L17.4924 38.1807L17.248 35.9804L17.4041 35.165L17.4814 35.0011L17.2589 34.4276L17.3037 33.2603L16.9522 32.6541L17.3718 32.0923L17.4041 30.5295L17.4592 30.2261L17.3718 29.5987L17.4363 28.6682L17.3074 28.194L17.0713 27.9731L17.5011 27.5269L17.359 26.0917L17.6369 25.6927L17.5333 25.0334L17.5857 23.7666L17.2911 23.1721L17.6258 22.4649L17.537 21.4736L17.9367 20.9597L17.6701 20.3251L17.743 19.1337L17.3234 18.5366L17.5978 18.1853L17.4703 16.7709L17.7036 16.2147L17.517 15.6743L17.4688 14.4102L17.1781 13.9536L17.5011 13.462L17.359 11.9592L17.6625 11.5482L17.4526 11.2319L17.3718 9.63408L17.0169 9.08969L17.2702 8.56217L17.1813 7.19624L17.4481 6.84572L17.1621 6.12219L17.2429 5.15658L16.8392 4.54204L16.8033 3.99684L16.694 2.76855V2.31199L16.8232 2.10125L16.5003 1.92558L15.8548 0.784319L15.1932 0.257602L14.9877 0.195746L15.3788 0L16.3785 0.158256L17.4927 1.22588L17.962 1.57908L18.3228 1.5989V2.06992L19.2431 3.34614L19.1348 3.87607L19.4776 4.22954L19.7301 5.68223L19.9108 6.07506L19.6762 6.60499L19.9467 8.01858L19.6762 8.45051L20.055 8.96089L20.1092 10.3745L20.2896 10.8653L20.0912 11.2579L20.0009 12.8678L19.8025 13.2408L20.1092 13.7514L20.1274 14.89L20.2174 15.5378L20.3978 15.6556L20.1092 15.8323L20.2174 17.7172L19.9548 18.3197L19.5318 19.0521L19.5859 19.4251L19.8205 19.7981L20.2716 19.7587L20.831 19.3073L21.21 18.6201L21.0114 18.1882L21.1918 17.6385V17.0496L21.4084 16.5783L21.6609 15.7932L21.8595 15.636L21.4446 15.1846V13.7514L21.1739 13.2212L21.4625 12.6126L21.4805 11.1599L21.8595 10.7475L21.5708 10.3351L21.9137 8.82352L21.7874 8.29359L22.2565 7.97949L22.8881 6.82109L23.5732 6.17199L23.8063 6.09782L24.1612 6.3423L24.5301 8.13641L24.8006 8.3916L24.6023 8.58788L24.7467 9.92302L24.6926 10.4728L24.4401 10.7753L24.8368 11.2579L24.8548 12.7893L25.0714 13.1623L24.8368 13.4371L24.7827 14.517L24.8006 14.8506L24.6926 15.1846L24.3315 15.5378L24.6023 15.8323L24.5661 16.5979L24.2769 17.3894L24.4398 17.8152L24.494 17.9724L24.0428 18.3454L23.9166 18.9736L23.7 19.8375L23.4293 20.0533L23.2489 20.3869L22.2565 21.0154L21.7692 21.2902L21.643 21.6436L21.1197 21.5649L20.0009 22.1146L19.4235 22.0755L19.3334 23.705L19.5367 24.3455L19.2792 24.5688L19.0988 25.5505L18.9002 26.2571L19.2251 26.7675L19.1527 28.24L19.3693 28.5346L19.0085 29.0645L18.9544 30.3407L18.8461 30.6744L19.0806 30.8316L19.2792 32.5984L19.5384 32.9275L19.3152 33.2464L19.4055 34.5028L19.1527 35.2684L19.5165 36.0334L19.8611 37.1083L19.9315 37.5758L19.9598 38.196L19.9487 39.5177L19.8025 40L18.6836 39.6072L14.7856 38.9605Z" fill="white"/>
<path d="M14.1808 1.32809L14.8089 38.6424L17.5096 38.7097L17.6569 38.1323L17.4278 35.788L17.4607 34.8609L17.6569 34.7734L17.3137 34.1259L17.4116 32.884L17.0032 32.3592L17.4278 31.7992L17.4607 30.2422L17.7548 29.9973L17.4278 29.3151L17.4934 28.3878L17.3625 27.9155L17.2319 27.7405L17.5587 27.2507L17.5913 26.0261L17.8692 25.4312L17.5913 24.7666L17.7222 23.2968L17.3463 22.9121L17.8528 22.2297L17.7384 21.3202L18.0001 20.7076L17.8039 19.9555V18.8884L17.6499 18.45L17.6569 17.9436L17.6404 16.754L17.9019 15.9667L17.5751 15.4419L17.526 14.1824L17.2319 13.7275L17.5587 13.2377L17.5096 11.8904L17.7222 11.3307L17.5096 11.0158L17.4278 9.4239L17.0685 8.88151L17.4278 8.5667L17.3299 7.23701L17.6078 6.60711L17.2155 5.92492L17.2972 4.9626L16.8888 4.35031L17.0358 3.84314L16.7415 2.58335V2.12847L16.8723 1.91877L16.5456 1.74375L15.8345 0.378844L15.2064 0L14.767 0.094978L14.3441 0.226506L14.1429 1.01755L14.1808 1.32809Z" fill="white"/>
<path d="M13.5 0.570263L13.8231 0.929923L14.4101 38.6623L16.7316 38.7097L16.1217 38.1571L16.1862 36.1321L16.9081 35.1939L16.6397 34.4783L16.4813 34.1122L16.606 32.7625L16.1153 32.3158L16.6273 31.7782L16.669 30.2167L17.0445 29.9708L16.6273 29.2865L16.7106 28.3566L16.544 27.8827L16.377 27.7072L16.7943 27.2158L16.8359 25.9875L17.1902 25.391L16.8359 24.7242L17.0026 23.2502L16.523 22.8641L17.1695 22.1798L17.0236 21.2673L17.3571 20.6531L17.1069 19.8985V18.8281L16.8343 18.2409L17.1031 17.8452L16.8983 16.6872L17.2322 15.8975L16.8149 15.3712L16.8649 14.1027L16.5205 13.5932L16.9288 13.4953L16.9399 11.7986L17.319 11.2463L17.097 10.8727L17.3282 9.33188L16.9399 8.77927L17.2776 8.34897L17.1555 7.07972L17.242 6.35131L16.9574 5.42192L16.7723 4.54311L16.3227 4.15374V3.67233L15.7515 2.47373V2.01746L15.9181 1.80686L15.4205 1.31902L15.1304 0.191336L14.6366 0L14.1821 0.0184647L14.0028 0.268406L13.5 0.570263Z" fill="white"/>
<path d="M12.8572 0.00589166C11.4715 -0.097177 11.4065 1.85745 10.6723 1.61739C11.0922 2.30758 9.52827 3.0898 9.89655 3.82259L9.7617 3.87097C9.1887 2.85001 10.9004 2.26131 10.4352 1.4457L10.4467 1.42887C11.305 1.66866 11.3532 -0.272815 12.4184 0.0327103L12.8572 0.00589166Z" fill="white"/>
<path d="M9.64286 4.02509C9.21674 4.29252 9.59003 6.17905 9.1628 6.37827C9.55207 6.78583 8.97956 8.42948 9.3541 8.90868L9.29988 9.03226C8.7485 8.40123 9.44433 6.85347 9 6.35372L9.00153 6.33118C9.49007 6.05975 9.00639 4.20005 9.61491 3.87097L9.64286 4.02509Z" fill="white"/>
<path d="M9.60323 8.51345C8.57796 8.84028 9.80716 10.3805 8.7682 10.6486C9.80611 10.9118 8.62991 12.4574 9.64289 12.7845L9.52636 12.9032C8.04689 12.4847 9.54777 10.9953 8.35718 10.6645V10.6447C9.53864 10.3005 8.03671 8.80832 9.50916 8.38708L9.60323 8.51345Z" fill="white"/>
<path d="M9.60323 13.0477C8.57796 13.4212 9.80716 15.1814 8.76855 15.4878C9.80611 15.7886 8.63026 17.5551 9.64289 17.9289L9.52636 18.0645C8.04689 17.5862 9.54777 15.884 8.35718 15.506V15.4833C9.53864 15.09 8.03671 13.3846 9.50916 12.9032L9.60323 13.0477Z" fill="white"/>
<path d="M10.2809 30.2501C10.0845 29.7238 10.2203 28.4847 9.87938 28.2824C9.87505 28.2798 9.87118 28.2754 9.86818 28.2696C9.86517 28.2638 9.86311 28.2568 9.86221 28.2493C9.86131 28.2418 9.8616 28.234 9.86304 28.2267C9.86448 28.2194 9.86704 28.2129 9.87045 28.2078C10.1973 27.7298 9.55791 26.4161 9.91496 25.9203C9.94144 25.8858 9.90602 25.8349 9.89342 25.8064C9.25526 26.2801 10.1305 27.8384 9.64294 28.3158L9.64534 28.3368C10.1584 28.4555 9.82657 29.967 10.2645 30.3226C10.2689 30.3206 10.273 30.317 10.2764 30.3119C10.2797 30.3068 10.2824 30.3005 10.284 30.2934C10.2856 30.2863 10.2861 30.2787 10.2856 30.2711C10.2851 30.2636 10.2835 30.2564 10.2809 30.2501V30.2501Z" fill="white"/>
<path d="M10.9287 35.3141C10.0402 34.938 11.0216 33.2004 10.0328 32.963C10.9949 32.5955 9.6804 30.8962 10.6237 30.4624L10.5234 30.3226C9.1641 30.8905 10.7327 32.5199 9.64294 32.9818V33.0044C10.8053 33.3152 9.84358 34.9334 10.735 35.4839C10.7397 35.4265 10.9076 35.3675 10.9287 35.3141Z" fill="white"/>
<path d="M10.7375 40C10.8554 39.9843 10.7879 39.9637 10.8529 39.909C10.1941 38.9025 10.6089 35.9355 10.9285 35.4839C10.128 35.9895 10.0876 39.5036 10.7375 40Z" fill="white"/>
<path d="M14.1429 0.0025188C15.5332 -0.0763395 14.762 1.72174 15.6601 1.84896L15.6678 1.87039C15.0541 2.48065 16.6024 3.81217 15.8704 4.51613L15.7149 4.45623C16.2254 3.90862 14.8532 2.44603 15.4005 1.94485C14.5848 1.82368 15.4863 0.112701 14.1824 0.0714858L14.1429 0.0025188Z" fill="white"/>
<path d="M16.1513 3.87097C17.3529 4.1837 16.3898 6.06918 17.354 6.32473L17.3571 6.34713C16.491 6.83169 17.817 8.42656 16.8023 9.03226L16.5691 8.96064C17.3135 8.45721 16.2639 6.8034 17.0356 6.37719C16.1908 6.18561 16.9123 4.25296 16.0714 3.97561L16.1513 3.87097Z" fill="white"/>
<path d="M16.6022 9.03226C17.9583 9.58826 16.2719 10.9764 17.3571 11.4316V11.4517C16.1599 11.678 17.7407 13.2477 16.2467 13.5424L16.0714 13.5484C17.1799 13.2881 15.8951 11.601 16.9626 11.3997C15.9723 10.9628 17.4656 9.60535 16.3953 9.05925L16.6022 9.03226Z" fill="white"/>
<path d="M16.2686 13.5484C17.67 14.0453 16.1986 15.6991 17.3571 16.1155V16.1383C16.1765 16.4778 17.8584 18.2746 16.4547 18.7097L16.3941 18.5542C17.4472 18.1786 15.8941 16.4136 16.9472 16.1129C15.918 15.7786 17.0825 13.9613 16.0714 13.5588L16.2686 13.5484Z" fill="white"/>
<path d="M16.3554 18.7097C17.7261 19.1654 16.2581 20.627 17.3571 20.9969V21.0165C16.2464 21.295 17.5432 22.8669 16.235 23.2258L16.0714 23.1119C17.0409 22.798 15.982 21.2354 16.9708 20.9918C16.0022 20.6955 17.1856 19.1705 16.2369 18.8016L16.3554 18.7097Z" fill="white"/>
<path d="M16.4241 22.5806C17.8483 23.1519 16.2148 24.797 17.3571 25.2655V25.2882C16.1456 25.5972 17.7168 27.3437 16.2059 27.7419L16.0714 27.6453C17.1895 27.3024 15.869 25.5208 16.9494 25.2464C15.9058 24.7945 17.3452 23.1923 16.2125 22.6202L16.4241 22.5806Z" fill="white"/>
<path d="M16.3998 27.7419C17.6708 28.1947 16.3063 29.6443 17.3571 30.0234V30.0436C16.2772 30.333 17.5208 31.8868 16.2358 32.2581L16.0714 32.2C17.0361 31.8769 16.0207 30.2729 16.9841 30.0165C16.0513 29.7112 17.0827 28.1615 16.3165 27.7583L16.3998 27.7419Z" fill="white"/>
<path d="M16.1415 32.2921C16.8117 32.6106 16.1616 34.7698 16.7143 35.0369L16.7132 35.053C16.129 35.3127 16.1805 37.329 16.2458 38.0645L16.0714 38.0017C16.1108 37.5692 15.9922 35.2724 16.5142 35.0421C16.0221 34.8298 16.5553 32.5185 16.0738 32.2581L16.1415 32.2921Z" fill="white"/>
<path d="M24.4424 10.9595C25.1509 10.4636 24.0437 8.77525 24.7699 8.34726C23.9739 8.14772 24.5965 6.09513 23.8096 5.8162L23.7858 5.80646C24.9277 6.14265 24.1517 8.02257 25.0689 8.28586L25.0715 8.30918C24.2511 8.84254 25.4971 10.3125 24.4746 10.9677L24.4424 10.9595Z" fill="white"/>
<path d="M24.4286 15.4698C24.9248 15.1553 24.3724 13.5044 24.8741 13.2494C24.381 12.9661 24.9729 11.344 24.4927 10.9954L24.525 10.9677C25.2274 11.4159 24.506 12.8864 25.0714 13.2401V13.26C24.4996 13.5898 25.166 15.0809 24.454 15.4839L24.4286 15.4698Z" fill="white"/>
<path d="M24.4406 18.0543C25.1334 17.6256 25.9974 12.1147 26.7072 11.7468C25.9402 11.555 27.1015 10.017 26.3449 9.7547L26.3984 9.67743C27.4969 9.99727 26.1147 11.4467 26.9978 11.6966L27 11.7174C26.1983 12.1773 25.4287 17.4992 24.4286 18.0645L24.4406 18.0543Z" fill="white"/>
<path d="M23.7858 5.85964C24.6717 5.47492 25.2829 7.31954 25.9011 6.85273L25.9084 6.86481C25.4774 7.78232 26.924 8.38263 26.0967 9.67743C26.235 9.2766 26.168 8.49569 26.0248 8.26213C25.8034 7.90715 25.4804 7.56332 25.7203 7.08505C25.1345 7.49269 24.6659 5.78654 23.8601 5.90084L23.7858 5.85964Z" fill="white"/>
<path d="M24.4286 5.80646C25.3663 7.69257 25.1565 15.5146 24.5724 18.0645C24.594 17.9021 24.6633 17.5471 24.6852 17.3472C25.0275 14.4209 25.3181 8.09626 24.4286 5.80646Z" fill="white"/>
<path d="M5.36088 8.27933C5.99981 7.77572 4.74387 6.47665 5.40702 6.02894C4.60976 5.9534 4.00933 4.02231 3.21436 3.87853L3.25923 3.87097C4.40656 4.02205 4.77192 5.82649 5.69386 5.94081L5.6987 5.9602C4.95447 6.50813 6.39016 7.71201 5.46031 8.3871L5.36088 8.27933Z" fill="white"/>
<path d="M3.59406 8.37102C4.40649 8.00459 3.34281 6.45592 4.16886 6.14945C3.31814 5.90933 4.04721 4.21597 3.21436 3.90848L3.45624 3.87097C4.66993 4.25808 3.52373 5.8167 4.50007 6.12113V6.14154C3.5623 6.53043 4.86871 7.90992 3.7004 8.3871L3.59406 8.37102Z" fill="white"/>
<path d="M3.85377 12.7641C4.84342 12.4347 2.96476 11.0597 3.96548 10.7927C2.98221 10.496 4.1718 8.80639 3.21436 8.44127L3.3103 8.38708C4.71124 8.85638 3.23146 10.4126 4.35899 10.783V10.804C3.21838 11.1494 5.42547 12.481 4.0054 12.9032L3.85377 12.7641Z" fill="white"/>
<path d="M9.59725 19.867C8.78976 20.4597 5.87118 18.8514 5.21761 19.3254L5.19894 19.3196C5.22291 18.6448 3.19283 18.9073 3.21453 18.0662L3.46258 18.0645C3.48781 18.6522 5.3728 18.5433 5.32991 19.1242C5.87244 18.6982 9.04942 20.1943 9.64293 19.791L9.59725 19.867Z" fill="white"/>
<path d="M9.50442 17.9011C6.7534 17.8301 5.89713 16.129 5.89713 16.129L5.78564 16.1479C5.92373 16.7424 6.44864 17.2225 7.01741 17.4819C7.80972 17.8438 8.93989 18.2416 9.64279 17.9803" fill="white"/>
<path d="M3.15958 3.96859C2.3046 3.87393 1.93988 5.29258 1.31864 4.95589C1.57311 5.3504 1.23025 5.63438 0.995381 5.92809C0.843431 6.12099 0.772355 6.76572 0.919292 7.09678C0.0413121 6.02864 1.5763 5.53179 1.11885 4.77398L1.12683 4.76375C1.78246 5.1493 2.27453 3.59659 3.21425 3.91409L3.15958 3.96859Z" fill="white"/>
<path d="M3.84853 18.0082C3.9004 18.2016 3.69609 17.822 3.74669 17.9791C2.37693 15.5156 0.831009 5.69469 3.03129 3.87097C0.944233 6.08436 3.04552 15.1798 3.84853 18.0082Z" fill="white"/>
<path d="M1.19621 12.2581C-0.255154 11.8049 1.165 10.071 0 9.69908V9.67671C1.15265 9.27792 -0.360096 7.60234 1.07206 7.09677L1.17151 7.15512C0.192394 7.54824 1.40883 9.36771 0.403308 9.68719C1.42667 9.97467 0.274016 11.757 1.28571 12.1119L1.19621 12.2581Z" fill="white"/>
<path d="M3.85711 18.0645C2.76507 17.9916 1.7248 14.8317 0.846384 14.7662L0.840336 14.7468C1.51772 14.1426 0.0748939 13.0174 0.912913 12.2581L0.993957 12.2873C0.432939 12.8478 1.71101 14.1643 1.11492 14.6659C1.87697 14.6892 3.04643 17.8675 3.81767 17.9521L3.85711 18.0645Z" fill="white"/>
<path d="M3.85718 17.9464C4.32578 17.5918 3.83986 15.781 4.31371 15.4935C3.84812 15.174 4.4114 13.3547 3.95805 12.9616L4.00348 12.9032C4.66682 13.4085 3.96615 15.0842 4.50003 15.483V15.5057C3.95995 15.8776 4.43379 17.0729 3.94613 18.0645L3.85718 17.9464Z" fill="white"/>
<path d="M13.972 1.16576C13.9925 1.74668 14.0656 2.56744 14.0814 3.14865C14.1311 3.11697 14.0871 3.23661 14.1428 3.22501C14.1164 2.59997 14.135 1.69238 14.1166 1.34479C14.1725 0.112519 12.9067 -0.233659 12.2142 0.146458L12.3039 0.316154C12.7877 -0.133539 14.0314 0.104034 13.972 1.16576Z" fill="white"/>
<path d="M15.4286 0.0317979C16.5544 -0.270692 17.5286 1.69054 18.4359 1.45313L18.4482 1.4698C17.9561 2.27678 19.766 2.86015 19.1602 3.87097L19.0176 3.82307C19.4067 3.09626 17.7533 2.32312 18.1973 1.63978C17.421 1.87745 16.9266 0.312161 15.8852 0.141132L15.4286 0.0317979Z" fill="white"/>
<path d="M19.3778 3.87097C20.5591 4.15891 19.6207 5.78616 20.5688 6.02365L20.5715 6.04338C19.7092 6.48066 21.06 7.83495 19.9893 8.3871L19.8841 8.27872C20.6112 7.85942 19.5009 6.42147 20.2557 6.06486C19.4264 5.89004 20.113 4.24856 19.2858 4.01457L19.3778 3.87097Z" fill="white"/>
<path d="M19.9953 8.38708C20.7324 8.80837 19.9807 10.3004 20.5714 10.6449V10.664C19.9761 10.9941 20.7266 12.4847 19.9869 12.9032L19.9286 12.7843C20.4349 12.4564 19.847 10.9113 20.3658 10.6484C19.8465 10.3802 20.4611 8.83934 19.9484 8.51297L19.9953 8.38708Z" fill="white"/>
<path d="M19.9771 12.9032C20.7377 13.4181 19.9621 15.2415 20.5714 15.6625V15.6858C19.9572 16.0892 20.8009 18.1994 20.0374 18.7097L20.0276 18.6576C20.5501 18.2569 19.8241 15.988 20.3594 15.6667C19.8234 15.339 20.4575 13.4559 19.9286 13.0571L19.9771 12.9032Z" fill="white"/>
<path d="M18.6429 26.3062C19.2233 25.7552 18.5848 24.4438 19.5251 24.2123C18.5563 23.8854 20.0956 21.7574 19.1508 21.3646L19.3444 21.2903C20.7101 21.799 18.8342 23.8043 19.9287 24.2198L19.9248 24.2415C18.8264 24.5386 19.6015 25.8618 18.6922 26.4516C18.6401 26.3985 18.7158 26.3425 18.6429 26.3062Z" fill="white"/>
<path d="M18.6502 30.2557C19.0571 29.6979 18.4627 28.5071 19.308 28.2382C19.3187 28.2347 19.3278 28.2296 19.3344 28.2233C19.341 28.2169 19.345 28.2097 19.3459 28.2021C19.3467 28.1945 19.3445 28.187 19.3394 28.1801C19.3343 28.1733 19.3265 28.1673 19.3167 28.1629C18.3743 27.76 19.7759 26.3369 18.7537 25.9228C18.6781 25.8941 18.7599 25.837 18.7875 25.8064C20.5381 26.1412 18.5696 27.8532 19.9287 28.2227L19.9262 28.2437C18.6176 28.4658 19.7746 29.8839 18.7073 30.3226C18.6957 30.3215 18.6846 30.3188 18.675 30.3146C18.6654 30.3104 18.6575 30.3048 18.6519 30.2983C18.6463 30.2918 18.6433 30.2845 18.643 30.2771C18.6427 30.2697 18.6451 30.2624 18.6502 30.2557V30.2557Z" fill="white"/>
<path d="M19.03 35.3261C19.8217 34.8577 18.6458 33.2353 19.5528 32.8944C18.5882 32.6314 19.5995 30.8033 18.6429 30.4723L18.7195 30.3226C20.09 30.7424 18.827 32.5274 19.9271 32.8715L19.9287 32.8944C18.8677 33.3265 20.0663 34.5679 19.1965 35.4839C19.1843 35.4276 19.0575 35.377 19.03 35.3261Z" fill="white"/>
<path d="M19.6539 39.9663C20.1921 40.4402 19.87 35.7584 19.2858 35.4839C19.46 35.5659 20.1698 38.8569 19.6539 39.9663Z" fill="white"/>
<path d="M21.5709 10.9677C20.5519 10.1915 22.1253 8.80722 21.3097 8.1769L21.315 8.1546C22.3254 8.02315 22.5257 5.97989 23.7837 5.80646H23.7857C22.913 5.97207 22.5003 8.16908 21.6279 8.25594C22.3544 8.77103 20.9783 10.2653 21.6785 10.8438L21.5709 10.9677Z" fill="white"/>
<path d="M19.2858 21.6098C19.826 22.1316 20.9166 20.7739 21.4111 21.3261C21.3711 20.5745 22.9675 20.771 22.9893 20.0105L23.1427 20C23.1625 21.0881 21.5076 20.7058 21.5294 21.5787L21.5126 21.5861C20.9175 20.973 20.0263 22.4796 19.2915 21.7122L19.2858 21.6098Z" fill="white"/>
<path d="M23.1428 19.8515C24.1934 19.716 23.6077 17.8895 24.6496 17.8171C23.7936 17.3431 25.5627 16.0136 24.5683 15.4921L24.6526 15.4839C25.8583 16.2046 23.9769 17.276 24.9495 17.8485L25.0238 17.9014C23.8248 18.0245 24.6765 19.8549 23.1847 20L23.1428 19.8515Z" fill="white"/>
<path d="M21.8126 15.4839C21.0864 15.0874 21.797 13.5704 21.2142 13.245V13.2252C21.791 12.8765 21.034 11.4101 21.7507 10.9677L21.7999 11.0188C21.31 11.363 21.9185 12.9548 21.4155 13.2344C21.9275 13.4859 21.3508 15.0457 21.8571 15.356L21.8126 15.4839Z" fill="white"/>
<path d="M21.8571 15.575C21.5289 15.6754 21.693 16.9531 21.3683 17.0211C21.6418 17.2962 21.1372 18.3266 21.3984 18.6377L21.351 18.7097C20.9636 18.3002 21.5548 17.3448 21.2455 16.9885L21.2475 16.9744C21.6256 16.856 21.3674 15.5907 21.8296 15.4839L21.8571 15.575Z" fill="white"/>
<path d="M19.7045 18.2616C19.7045 18.2616 19.8908 18.2367 19.9864 18.1185C20.3186 17.7126 18.6459 19.7298 19.9515 19.7349C20.9471 19.7389 21.0962 18.6039 21.0962 18.6039L21.2143 18.6227C21.2143 18.6227 20.6577 20.3806 19.5522 19.9244C18.874 19.6456 19.7045 18.2616 19.7045 18.2616Z" fill="white"/>
<path d="M14.7856 0.236769C14.7856 0.236769 16.7199 -0.508387 17.3571 0.645161C17.3571 0.645161 16.497 -0.310071 14.9102 0.260289L14.7856 0.236769Z" fill="white"/>
<path d="M14.3774 38.7097C14.3774 38.7097 13.0075 18.8119 12.903 16.5518C12.7984 14.2918 12.7454 5.59803 14.2287 1.29034C14.2287 1.29034 14.8279 17.0781 14.7832 22.2949C14.7508 26.0621 14.7417 38.5392 14.7417 38.5392L14.3774 38.7097Z" fill="white"/>
<path d="M10.2856 40C10.2856 40 13.708 35.6574 19.9285 39.9817L10.2856 40Z" fill="white"/>
<path d="M13.5207 1.29032C13.5207 1.29032 15.3361 -0.130739 16.0714 0.0271279C16.0714 0.0271279 13.2314 -0.296296 13.5207 1.29032Z" fill="white"/>
</svg>
